# xmcd
#
# Track frame offsets: 
#        150
#        19295
#        33016
#        62059
#        78675
#        95849
#        114574
#        135283
#
# Disc length: 2155 seconds
#
# Revision: 1
# Processed by: cddbd v1.5.2PL0 Copyright (c) Steve Scherf et al.
# Submitted via: ExactAudioCopy v1.0b3
#
DISCID=63086908
DTITLE=A Ton of Blues - Crooked Avenue
DYEAR=2012
DGENRE=Blues
TTITLE0=I've Got to Let You Know
TTITLE1=This Thing I Do"
TTITLE2=Salt and Sugarcane
TTITLE3=One Day
TTITLE4=I Won't Be Your Fool
TTITLE5=When It Comes to Love
TTITLE6=Sweetie Pie
TTITLE7=Colleen
EXTD=
EXTT0=
EXTT1=
EXTT2=
EXTT3=
EXTT4=
EXTT5=
EXTT6=
EXTT7=
PLAYORDER=
